<svg xmlns="http://www.w3.org/2000/svg" version="1.1" xmlns:xlink="http://www.w3.org/1999/xlink" xmlns:svgjs="http://svgjs.dev/svgjs" width="1500" height="772" viewBox="0 0 1500 772"><g transform="matrix(1,0,0,1,-0.9090909090909918,24.2036221072521)"><svg viewBox="0 0 396 204" data-background-color="#ffffff" preserveAspectRatio="xMidYMid meet" height="772" width="1500" xmlns="http://www.w3.org/2000/svg" xmlns:xlink="http://www.w3.org/1999/xlink"><g id="tight-bounds" transform="matrix(1,0,0,1,0.2400000000000091,-0.22958165445908207)"><svg viewBox="0 0 395.52 204.45916330891816" height="204.45916330891816" width="395.52"><g><svg viewBox="0 0 395.52 204.45916330891816" height="204.45916330891816" width="395.52"><g transform="matrix(1,0,0,1,0,126.36396541973613)"><svg viewBox="0 0 395.52 78.09519788918205" height="78.09519788918205" width="395.52"><g id="textblocktransform"><svg viewBox="0 0 395.52 78.09519788918205" height="78.09519788918205" width="395.52" id="textblock"><g><svg viewBox="0 0 395.52 78.09519788918205" height="78.09519788918205" width="395.52"><g transform="matrix(1,0,0,1,0,0)"><svg width="395.52" viewBox="0.35 -33.13 170.54 33.68000000000001" height="78.09519788918205" data-palette-color="#1d597d"><path d="M12.18 0.5L12.18 0.5Q9.35 0.5 7.63-0.35 5.9-1.2 5.13-2.93 4.35-4.65 4.35-7.23L4.35-7.23 4.35-22.63 8.35-22.63 8.35-7.7Q8.35-5.3 9.45-4.16 10.55-3.03 13.15-3.03L13.15-3.03Q14.63-3.03 15.99-3.35 17.35-3.68 18.55-4.28L18.55-4.28 18.18-0.8Q17-0.2 15.43 0.15 13.85 0.5 12.18 0.5ZM17.93-20.8L0.35-20.8 0.35-24.05 18.3-24.05 17.93-20.8ZM8.25-23.65L4.38-23.65 4.35-30.5 8.43-31.03 8.25-23.65ZM33.32 0.55L33.32 0.55Q27.75 0.55 24.92-2.18 22.1-4.9 22.1-9.98L22.1-9.98 22.1-14.33Q22.1-19.48 24.72-22.26 27.35-25.05 32.4-25.05L32.4-25.05Q35.8-25.05 38.07-23.79 40.35-22.53 41.5-20.2 42.65-17.88 42.65-14.65L42.65-14.65 42.65-13.75Q42.65-12.95 42.59-12.15 42.52-11.35 42.42-10.58L42.42-10.58 38.7-10.58Q38.75-11.78 38.76-12.85 38.77-13.93 38.77-14.83L38.77-14.83Q38.77-17.05 38.06-18.59 37.35-20.13 35.94-20.94 34.52-21.75 32.4-21.75L32.4-21.75Q29.25-21.75 27.67-19.93 26.1-18.1 26.1-14.7L26.1-14.7 26.1-12.38 26.12-11.88 26.12-9.55Q26.12-8.03 26.57-6.8 27.02-5.58 27.98-4.69 28.95-3.8 30.44-3.34 31.92-2.88 33.97-2.88L33.97-2.88Q36.35-2.88 38.4-3.5 40.45-4.13 42.25-5.2L42.25-5.2 41.87-1.7Q40.25-0.68 38.1-0.06 35.95 0.55 33.32 0.55ZM41.57-10.58L24.22-10.58 24.22-13.63 41.57-13.63 41.57-10.58ZM57.45 0.55L57.45 0.55Q52.2 0.55 49.63-2.29 47.07-5.13 47.07-10.33L47.07-10.33 47.07-14.13Q47.07-19.35 49.65-22.16 52.22-24.98 57.45-24.98L57.45-24.98Q59-24.98 60.27-24.69 61.55-24.4 62.56-23.94 63.57-23.48 64.27-22.98L64.27-22.98 64.62-19.45Q63.45-20.35 61.83-20.98 60.22-21.6 58.05-21.6L58.05-21.6Q54.55-21.6 52.83-19.66 51.12-17.73 51.12-14.03L51.12-14.03 51.12-10.43Q51.12-6.8 52.83-4.85 54.55-2.9 58.05-2.9L58.05-2.9Q60.3-2.9 61.93-3.53 63.57-4.15 64.84-5.05L64.84-5.05 64.47-1.48Q63.37-0.73 61.6-0.09 59.82 0.55 57.45 0.55ZM90.12 0L86.07 0 86.07-15.18Q86.07-17.15 85.53-18.57 84.99-20 83.78-20.79 82.57-21.58 80.47-21.58L80.47-21.58Q78.54-21.58 77.14-20.85 75.74-20.13 74.88-18.89 74.02-17.65 73.67-16.07L73.67-16.07 72.77-18.95 73.82-18.95Q74.19-20.6 75.19-21.96 76.19-23.33 77.88-24.14 79.57-24.95 81.99-24.95L81.99-24.95Q84.89-24.95 86.68-23.85 88.47-22.75 89.29-20.69 90.12-18.63 90.12-15.63L90.12-15.63 90.12 0ZM73.79 0L69.74 0 69.74-33.13 73.77-33.13 73.77-25.18 73.64-18.18 73.79-17.85 73.79 0ZM116.77 0L112.72 0 112.72-15.18Q112.72-17.15 112.18-18.57 111.64-20 110.43-20.79 109.22-21.58 107.12-21.58L107.12-21.58Q105.19-21.58 103.79-20.85 102.39-20.13 101.53-18.89 100.67-17.65 100.32-16.07L100.32-16.07 99.42-18.95 100.47-18.95Q100.84-20.6 101.84-21.96 102.84-23.33 104.53-24.14 106.22-24.95 108.64-24.95L108.64-24.95Q111.54-24.95 113.33-23.85 115.12-22.75 115.94-20.69 116.77-18.63 116.77-15.63L116.77-15.63 116.77 0ZM100.44 0L96.39 0 96.39-33.13 100.42-33.13 100.42-25.18 100.29-18.18 100.44-17.85 100.44 0ZM122.74-24.4L126.76-24.4 126.76-9.22Q126.76-7.3 127.3-5.86 127.84-4.42 129.06-3.64 130.29-2.85 132.36-2.85L132.36-2.85Q134.31-2.85 135.71-3.56 137.11-4.28 138-5.53 138.89-6.78 139.21-8.35L139.21-8.35 139.94-5.48 139.06-5.48Q138.69-3.83 137.69-2.46 136.69-1.1 135-0.29 133.31 0.53 130.84 0.53L130.84 0.53Q127.96 0.53 126.18-0.56 124.39-1.65 123.56-3.74 122.74-5.83 122.74-8.78L122.74-8.78 122.74-24.4ZM139.04-24.4L143.09-24.4 143.09 0 139.04 0 139.21-5.85 139.04-6.1 139.04-24.4ZM161.71 0.53L161.71 0.53Q159.46 0.53 157.8-0.23 156.14-0.98 155.11-2.38 154.09-3.78 153.74-5.63L153.74-5.63 152.39-5.63 153.61-9.43Q153.74-7.23 154.65-5.76 155.56-4.3 157.09-3.58 158.61-2.85 160.54-2.85L160.54-2.85Q163.59-2.85 165.2-4.65 166.81-6.45 166.81-10L166.81-10 166.81-14.58Q166.81-18.05 165.19-19.85 163.56-21.65 160.46-21.65L160.46-21.65Q158.61-21.65 157.19-20.93 155.76-20.2 154.82-18.95 153.89-17.7 153.54-16.1L153.54-16.1 152.61-18.93 153.76-18.93Q154.14-20.6 155.1-21.96 156.06-23.33 157.74-24.14 159.41-24.95 161.89-24.95L161.89-24.95Q166.29-24.95 168.59-22.21 170.89-19.48 170.89-14.28L170.89-14.28 170.89-10.23Q170.89-4.98 168.55-2.23 166.21 0.53 161.71 0.53ZM153.74 0L149.69 0 149.69-33.13 153.71-33.13 153.71-25.18 153.59-18.18 153.61-17.4 153.61-7.2 153.56-5.9 153.74 0Z" opacity="1" transform="matrix(1,0,0,1,0,0)" fill="#1d597d" class="wordmark-text-0" data-fill-palette-color="primary" id="text-0"></path></svg></g></svg></g></svg></g></svg></g><g transform="matrix(1,0,0,1,127.40073013858554,0)"><svg viewBox="0 0 140.7185397228289 107.92756348284959" height="107.92756348284959" width="140.7185397228289"><g><svg xmlns="http://www.w3.org/2000/svg" xmlns:xlink="http://www.w3.org/1999/xlink" version="1.1" x="0" y="0" viewBox="25.319013706630393 31.071 49.36147007722591 37.85900000000001" enable-background="new 0 0 100 100" xml:space="preserve" height="107.92756348284959" width="140.7185397228289" class="icon-icon-0" data-fill-palette-color="accent" id="icon-0"><path d="M73.789 58.976A6.66 6.66 0 0 0 68.038 55.658C67.051 55.658 66.08 55.893 65.189 56.319L56.476 45.403A8.6 8.6 0 0 0 58.337 41.937 8.57 8.57 0 0 0 57.474 35.387 8.66 8.66 0 0 0 49.994 31.071C48.487 31.071 46.998 31.471 45.687 32.229A8.57 8.57 0 0 0 41.664 37.469 8.57 8.57 0 0 0 42.525 44.018C42.813 44.518 43.162 44.969 43.537 45.393L34.81 56.319A6.6 6.6 0 0 0 31.962 55.659 6.66 6.66 0 0 0 26.21 58.977 6.6 6.6 0 0 0 25.548 64.012 6.58 6.58 0 0 0 28.638 68.039 6.64 6.64 0 0 0 31.952 68.93 6.66 6.66 0 0 0 37.704 65.612 6.6 6.6 0 0 0 38.366 60.577 6.6 6.6 0 0 0 37.162 58.181L45.876 47.27A8.7 8.7 0 0 0 48.499 48.186V55.841A6.7 6.7 0 0 0 46.682 56.548 6.643 6.643 0 0 0 44.253 65.612 6.66 6.66 0 0 0 50.004 68.929 6.64 6.64 0 0 0 53.317 68.039C54.851 67.153 55.949 65.723 56.408 64.011S56.632 60.511 55.745 58.976A6.65 6.65 0 0 0 51.499 55.843V48.188A8.7 8.7 0 0 0 54.128 47.27L62.84 58.184C61.209 60.254 60.9 63.193 62.296 65.612A6.66 6.66 0 0 0 68.047 68.929 6.64 6.64 0 0 0 71.36 68.039C72.894 67.153 73.992 65.723 74.451 64.011S74.676 60.511 73.789 58.976M35.106 64.111A3.65 3.65 0 0 1 31.953 65.929C31.32 65.929 30.693 65.76 30.139 65.441 29.299 64.956 28.698 64.172 28.447 63.235S28.325 61.317 28.81 60.476A3.65 3.65 0 0 1 31.963 58.658C32.596 58.658 33.223 58.826 33.775 59.145A3.6 3.6 0 0 1 35.468 61.352 3.6 3.6 0 0 1 35.106 64.111M53.148 60.476C53.633 61.317 53.762 62.296 53.511 63.235A3.634 3.634 0 0 1 46.852 64.112 3.64 3.64 0 0 1 48.183 59.145 3.64 3.64 0 0 1 49.993 58.658L50.001 58.659H50.005A3.65 3.65 0 0 1 53.148 60.476M50.021 45.334L50 45.332 49.985 45.334A5.66 5.66 0 0 1 45.123 42.518 5.6 5.6 0 0 1 44.561 38.247 5.6 5.6 0 0 1 47.187 34.827 5.6 5.6 0 0 1 49.995 34.071C52.004 34.071 53.875 35.151 54.878 36.887A5.6 5.6 0 0 1 55.44 41.16 5.6 5.6 0 0 1 52.817 44.579 5.6 5.6 0 0 1 50.021 45.334M71.555 63.234A3.634 3.634 0 0 1 64.896 64.111 3.64 3.64 0 0 1 66.227 59.144 3.64 3.64 0 0 1 68.039 58.657 3.65 3.65 0 0 1 71.192 60.475C71.677 61.316 71.806 62.296 71.555 63.234" fill="#83b6b9" data-fill-palette-color="accent"></path></svg></g></svg></g><g></g></svg></g><defs></defs></svg><rect width="395.52" height="204.45916330891816" fill="none" stroke="none" visibility="hidden"></rect></g></svg></g></svg>